<?xml version="1.0" standalone="no"?>
<!DOCTYPE svg PUBLIC "-//W3C//DTD SVG 20010904//EN"
 "http://www.w3.org/TR/2001/REC-SVG-20010904/DTD/svg10.dtd">
<svg version="1.0" xmlns="http://www.w3.org/2000/svg"
 width="512.000000pt" height="512.000000pt" viewBox="0 0 512.000000 512.000000"
 preserveAspectRatio="xMidYMid meet">

<g transform="translate(0.000000,512.000000) scale(0.100000,-0.100000)"
fill="#000000" stroke="none">
<path d="M4996 5067 c-14 -10 -19 -38 -26 -157 -14 -214 -23 -264 -83 -442
-253 -748 -752 -1450 -1547 -2179 -828 -759 -1359 -1114 -1893 -1268 -164 -47
-261 -62 -442 -68 l-170 -5 -32 53 c-45 77 -136 189 -244 302 -80 82 -99 97
-125 97 -17 0 -36 -6 -42 -12 -12 -15 -181 -379 -254 -548 -61 -140 -138 -347
-138 -370 0 -9 9 -25 19 -34 26 -24 564 -247 727 -301 72 -24 188 -56 257 -70
117 -24 129 -24 157 -10 50 26 48 53 -8 152 -98 172 -163 295 -158 300 3 3 45
9 93 14 805 80 1607 438 2343 1047 146 121 507 482 631 632 608 732 949 1528
1008 2350 5 69 19 176 31 239 23 123 21 156 -10 166 -16 5 -20 15 -20 46 0 26
-7 46 -20 59 -23 23 -30 24 -54 7z m-280 -1401 c-176 -484 -437 -940 -785
-1366 -110 -135 -393 -424 -541 -552 -634 -550 -1414 -932 -2260 -1104 -185
-38 -210 -46 -210 -69 0 -8 -5 -15 -10 -15 -6 0 -15 -11 -21 -24 -9 -20 -5
-37 24 -102 64 -143 97 -227 93 -232 -14 -14 -314 89 -631 216 -192 77 -205
83 -205 96 0 29 93 255 218 530 l76 169 49 -54 c26 -30 93 -110 149 -179 56
-69 108 -131 116 -138 26 -21 60 -14 79 15 9 16 18 29 19 31 1 2 36 -4 78 -12
108 -23 291 -21 420 4 388 75 917 370 1516 846 774 613 1437 1331 1790 1937
34 59 64 106 67 104 2 -2 -12 -48 -31 -101z"/>
</g>
</svg>
